<svg xmlns="http://www.w3.org/2000/svg" viewBox="0 0 960 640" role="img" aria-labelledby="title desc">
  <title id="title">Illustration zur Sprachfindung</title>
  <desc id="desc">Szene mit Notizkarten, Sprechblasen und Textlinien fuer Markenstimme, Sprache und Struktur.</desc>
  <defs>
    <linearGradient id="bg" x1="0" y1="0" x2="1" y2="1">
      <stop offset="0%" stop-color="#fffdf8"/>
      <stop offset="100%" stop-color="#eef6f4"/>
    </linearGradient>
    <linearGradient id="panel" x1="0" y1="0" x2="1" y2="1">
      <stop offset="0%" stop-color="#ffffff"/>
      <stop offset="100%" stop-color="#f8f3eb"/>
    </linearGradient>
  </defs>
  <rect width="960" height="640" fill="url(#bg)"/>
  <path d="M83 476c82-93 181-110 285-76 62 21 94 55 151 60 74 7 109-24 185-39 97-20 183 2 206 107v112H83z" fill="#e2f0e3"/>
  <g transform="translate(108 100)">
    <rect x="0" y="62" width="296" height="214" rx="30" fill="url(#panel)" stroke="#dbe8dc" stroke-width="8"/>
    <path d="M54 126h188" stroke="#5f9f86" stroke-width="12" stroke-linecap="round"/>
    <path d="M54 165h138" stroke="#9fc8ba" stroke-width="12" stroke-linecap="round"/>
    <path d="M54 204h164" stroke="#d8e6da" stroke-width="12" stroke-linecap="round"/>
    <path d="M74 0h160c37 0 68 31 68 68v22H74c-41 0-74-33-74-74V0z" fill="#46b6c8" opacity="0.9"/>
    <circle cx="128" cy="45" r="10" fill="#ffffff"/>
    <circle cx="162" cy="45" r="10" fill="#ffffff" opacity="0.82"/>
    <circle cx="196" cy="45" r="10" fill="#ffffff" opacity="0.62"/>
  </g>
  <g transform="translate(438 126)">
    <rect x="0" y="0" width="334" height="286" rx="34" fill="#fff8f2" stroke="#ecd7df" stroke-width="8"/>
    <path d="M44 70h104" stroke="#e56f9f" stroke-width="12" stroke-linecap="round"/>
    <path d="M44 116h244" stroke="#cddfce" stroke-width="12" stroke-linecap="round"/>
    <path d="M44 158h206" stroke="#aacbab" stroke-width="12" stroke-linecap="round"/>
    <path d="M44 202h150" stroke="#f4d35e" stroke-width="12" stroke-linecap="round"/>
    <g transform="translate(222 36)">
      <path d="M0 34c0-19 15-34 34-34h52c19 0 34 15 34 34v18c0 19-15 34-34 34H54L26 112V86H34C15 86 0 71 0 52z" fill="#dff0f2"/>
      <path d="M28 34h62" stroke="#46b6c8" stroke-width="10" stroke-linecap="round"/>
      <path d="M28 58h44" stroke="#8ec6af" stroke-width="10" stroke-linecap="round"/>
    </g>
  </g>
  <g transform="translate(296 388)">
    <rect x="0" y="0" width="160" height="112" rx="22" fill="#fffaf5" stroke="#ecdccd" stroke-width="6" transform="rotate(-7 80 56)"/>
    <rect x="188" y="10" width="164" height="116" rx="22" fill="#f7fbf6" stroke="#dbe8dc" stroke-width="6" transform="rotate(6 270 68)"/>
    <path d="M40 50h72" stroke="#5f9f86" stroke-width="10" stroke-linecap="round"/>
    <path d="M40 78h58" stroke="#e56f9f" stroke-width="10" stroke-linecap="round"/>
    <path d="M228 60h78" stroke="#46b6c8" stroke-width="10" stroke-linecap="round"/>
    <path d="M228 88h52" stroke="#8caf67" stroke-width="10" stroke-linecap="round"/>
  </g>
</svg>