<svg xmlns="http://www.w3.org/2000/svg" viewBox="0 0 32 32">
  <rect width="32" height="32" rx="6" fill="#1e2033"/>
  <g transform="scale(1.2) translate(0.5, 1)" fill="#d6006e">
    <path d="M11 16 C5.5 15.5 2.5 12 4 7.5 C8.5 9 10.5 13 11 16Z" opacity="0.45"/>
    <path d="M13 16 C18.5 15.5 21.5 12 20 7.5 C15.5 9 13.5 13 13 16Z" opacity="0.45"/>
    <path d="M12 15 C7.5 13 6.5 7.5 8.5 3.5 C10.5 7 12 12 12 15Z" opacity="0.68"/>
    <path d="M12 15 C16.5 13 17.5 7.5 15.5 3.5 C13.5 7 12 12 12 15Z" opacity="0.68"/>
    <path d="M12 15 C10 11 10 6 12 1.5 C14 6 14 11 12 15Z"/>
    <circle cx="12" cy="15.5" r="1.2"/>
  </g>
</svg>
